<svg viewBox="0 0 760 320" xmlns="http://www.w3.org/2000/svg" font-family="Helvetica, Arial, sans-serif">
<rect x="60" y="120" width="179" height="130" fill="#f3f4f6" stroke="#d1d5db"/>
<rect x="239" y="120" width="77" height="130" fill="#fafafa" stroke="#d1d5db"/>
<rect x="316" y="120" width="128" height="130" fill="#f3f4f6" stroke="#d1d5db"/>
<rect x="444" y="120" width="256" height="130" fill="#fafafa" stroke="#d1d5db"/>

<text x="149" y="108" text-anchor="middle" font-size="12" fill="#6b7280">no play</text>
<text x="277" y="108" text-anchor="middle" font-size="14" font-weight="500" fill="#1f2937">C</text>
<text x="380" y="108" text-anchor="middle" font-size="14" font-weight="500" fill="#1f2937">B</text>
<text x="572" y="108" text-anchor="middle" font-size="14" font-weight="500" fill="#1f2937">A</text>

<g fill="#a7c4f7" stroke="#5b8def">
<rect x="60" y="165" width="113" height="40" rx="4"/>
<rect x="177" y="165" width="222" height="40" rx="4"/>
<rect x="403" y="165" width="75" height="40" rx="4"/>
<rect x="482" y="165" width="71" height="40" rx="4"/>
</g>

<text x="117" y="228" text-anchor="middle" font-size="12" fill="#6b7280">sentiment +18</text>
<text x="288" y="155" text-anchor="middle" font-size="12" fill="#6b7280">sharp consensus +35</text>
<text x="440" y="228" text-anchor="middle" font-size="12" fill="#6b7280">market edge +12</text>
<text x="517" y="155" text-anchor="middle" font-size="12" fill="#6b7280">model agrees +12</text>

<line x1="553" y1="185" x2="590" y2="185" stroke="#9aa4b2"/>
<text x="598" y="190" font-size="14" font-weight="500" fill="#1f2937">score 77 = A</text>

<text x="60" y="272" text-anchor="middle" font-size="12" fill="#6b7280">0</text>
<text x="239" y="272" text-anchor="middle" font-size="12" fill="#6b7280">28</text>
<text x="316" y="272" text-anchor="middle" font-size="12" fill="#6b7280">40</text>
<text x="444" y="272" text-anchor="middle" font-size="12" fill="#6b7280">60</text>
<text x="700" y="272" text-anchor="middle" font-size="12" fill="#6b7280">100</text>
</svg>
