<svg viewBox="0 0 760 580" xmlns="http://www.w3.org/2000/svg" font-family="Helvetica, Arial, sans-serif">
<defs><marker id="ar" markerWidth="10" markerHeight="10" refX="8" refY="3" orient="auto"><path d="M0,0 L8,3 L0,6 z" fill="#9aa4b2"/></marker></defs>

<g>
<rect x="20" y="20" width="170" height="60" rx="4" fill="#e8f0fe" stroke="#5b8def"/>
<text x="105" y="45" text-anchor="middle" font-size="14" font-weight="500" fill="#1f2937">Odds and props</text>
<text x="105" y="63" text-anchor="middle" font-size="12" fill="#6b7280">ESPN + SGO board</text>
<rect x="200" y="20" width="170" height="60" rx="4" fill="#e8f0fe" stroke="#5b8def"/>
<text x="285" y="45" text-anchor="middle" font-size="14" font-weight="500" fill="#1f2937">Prediction markets</text>
<text x="285" y="63" text-anchor="middle" font-size="12" fill="#6b7280">Polymarket + Kalshi</text>
<rect x="380" y="20" width="170" height="60" rx="4" fill="#e8f0fe" stroke="#5b8def"/>
<text x="465" y="45" text-anchor="middle" font-size="14" font-weight="500" fill="#1f2937">Social posts</text>
<text x="465" y="63" text-anchor="middle" font-size="12" fill="#6b7280">Bluesky, 4chan + 5 ready</text>
<rect x="560" y="20" width="180" height="60" rx="4" fill="#e8f0fe" stroke="#5b8def"/>
<text x="650" y="45" text-anchor="middle" font-size="14" font-weight="500" fill="#1f2937">History</text>
<text x="650" y="63" text-anchor="middle" font-size="12" fill="#6b7280">scores + player logs</text>
</g>

<line x1="105" y1="80" x2="105" y2="126" stroke="#9aa4b2" marker-end="url(#ar)"/>
<line x1="285" y1="80" x2="285" y2="126" stroke="#9aa4b2" marker-end="url(#ar)"/>
<line x1="465" y1="80" x2="465" y2="126" stroke="#9aa4b2" marker-end="url(#ar)"/>
<line x1="650" y1="80" x2="650" y2="126" stroke="#9aa4b2" marker-end="url(#ar)"/>

<g>
<rect x="20" y="130" width="170" height="60" rx="4" fill="#e8f0fe" stroke="#5b8def"/>
<text x="105" y="155" text-anchor="middle" font-size="14" font-weight="500" fill="#1f2937">Slate and lines</text>
<text x="105" y="173" text-anchor="middle" font-size="12" fill="#6b7280">games + prop lines</text>
<rect x="200" y="130" width="170" height="60" rx="4" fill="#e8f0fe" stroke="#5b8def"/>
<text x="285" y="155" text-anchor="middle" font-size="14" font-weight="500" fill="#1f2937">Market edge</text>
<text x="285" y="173" text-anchor="middle" font-size="12" fill="#6b7280">vs book + steam</text>
<rect x="380" y="130" width="170" height="60" rx="4" fill="#e8f0fe" stroke="#5b8def"/>
<text x="465" y="155" text-anchor="middle" font-size="14" font-weight="500" fill="#1f2937">Sharp consensus</text>
<text x="465" y="173" text-anchor="middle" font-size="12" fill="#6b7280">side convergence</text>
<rect x="560" y="130" width="180" height="60" rx="4" fill="#e8f0fe" stroke="#5b8def"/>
<text x="650" y="155" text-anchor="middle" font-size="14" font-weight="500" fill="#1f2937">+EV model</text>
<text x="650" y="173" text-anchor="middle" font-size="12" fill="#6b7280">team + player props</text>
</g>

<path d="M105,190 L105,222 L210,222 L210,246" fill="none" stroke="#9aa4b2" marker-end="url(#ar)"/>
<line x1="285" y1="190" x2="285" y2="246" stroke="#9aa4b2" marker-end="url(#ar)"/>
<line x1="465" y1="190" x2="465" y2="246" stroke="#9aa4b2" marker-end="url(#ar)"/>
<path d="M650,190 L650,222 L550,222 L550,246" fill="none" stroke="#9aa4b2" marker-end="url(#ar)"/>

<rect x="190" y="250" width="380" height="70" rx="4" fill="#e8f0fe" stroke="#5b8def"/>
<text x="380" y="280" text-anchor="middle" font-size="14" font-weight="500" fill="#1f2937">Suggestion engine</text>
<text x="380" y="300" text-anchor="middle" font-size="12" fill="#6b7280">merge per bet, score 0-100, grade A/B/C, flip watch</text>

<path d="M300,320 L300,350 L250,350 L250,376" fill="none" stroke="#9aa4b2" marker-end="url(#ar)"/>
<path d="M460,320 L460,350 L510,350 L510,376" fill="none" stroke="#9aa4b2" marker-end="url(#ar)"/>

<g>
<rect x="150" y="380" width="200" height="60" rx="4" fill="#e6f4f1" stroke="#2a9d8f"/>
<text x="250" y="405" text-anchor="middle" font-size="14" font-weight="500" fill="#1f2937">Telegram digest</text>
<text x="250" y="423" text-anchor="middle" font-size="12" fill="#6b7280">launchd 9:00 + 16:00</text>
<rect x="410" y="380" width="200" height="60" rx="4" fill="#e6f4f1" stroke="#2a9d8f"/>
<text x="510" y="405" text-anchor="middle" font-size="14" font-weight="500" fill="#1f2937">Data files</text>
<text x="510" y="423" text-anchor="middle" font-size="12" fill="#6b7280">suggestions + model recs</text>
</g>

<path d="M510,440 L510,518 L494,518" fill="none" stroke="#9aa4b2" marker-end="url(#ar)"/>

<rect x="290" y="490" width="200" height="56" rx="4" fill="#e6f4f1" stroke="#2a9d8f"/>
<text x="390" y="513" text-anchor="middle" font-size="14" font-weight="500" fill="#1f2937">Next-day grading</text>
<text x="390" y="531" text-anchor="middle" font-size="12" fill="#6b7280">spreads, totals, props</text>

<path d="M290,518 L90,518 L90,285 L186,285" fill="none" stroke="#9aa4b2" marker-end="url(#ar)"/>
<text x="100" y="395" font-size="12" fill="#6b7280">W-L per grade</text>
<text x="100" y="411" font-size="12" fill="#6b7280">opens each digest</text>
</svg>
